<svg width="16" height="14" viewBox="0 0 16 14" fill="none" xmlns="http://www.w3.org/2000/svg">
<g id="Group 1">
<path id="Vector" d="M1.24023 3.7627V12.96H15.2803V3.7627H1.24023Z" stroke="#161827" stroke-width="0.622592"/>
<path id="Vector_2" d="M4.51758 6.68894C4.51758 6.9199 4.72711 7.10703 4.98558 7.10703C5.24407 7.10703 5.45356 6.9199 5.45356 6.68894H4.51758ZM11.0696 6.68894C11.0696 6.9199 11.2792 7.10703 11.5376 7.10703C11.796 7.10703 12.0056 6.9199 12.0056 6.68894H11.0696ZM5.45356 3.76255C5.45356 2.5778 5.79904 1.86578 6.27383 1.44725C6.75021 1.02731 7.43244 0.836121 8.2616 0.836121V0C7.28148 0 6.32567 0.226874 5.61636 0.85209C4.90551 1.47871 4.51758 2.43894 4.51758 3.76255H5.45356ZM8.2616 0.836121C9.09076 0.836121 9.77298 1.02731 10.2494 1.44725C10.7243 1.86578 11.0696 2.5778 11.0696 3.76255H12.0056C12.0056 2.43894 11.6177 1.47871 10.9068 0.85209C10.1976 0.226874 9.24172 0 8.2616 0V0.836121ZM4.51758 3.76255V6.68894H5.45356V3.76255H4.51758ZM11.0696 3.76255V6.68894H12.0056V3.76255H11.0696Z" fill="#161827"/>
</g>
</svg>
